<svg id="Layer_1" data-name="Layer 1" xmlns="http://www.w3.org/2000/svg" viewBox="0 0 492.6 91.89"><defs><style>.cls-1{fill:#02549d;}.cls-2{fill:#fcb619;}.cls-3{fill:#444445;}</style></defs><path class="cls-1" d="M97.18,13,79.77,72.45A4.88,4.88,0,0,1,75.09,76H48.58L66,16.53A4.88,4.88,0,0,1,70.67,13Z" transform="translate(-3.6 -13.02)"/><path class="cls-1" d="M48.58,76,41.12,101.4a4.88,4.88,0,0,1-4.68,3.51H3.6l7.45-25.45A4.88,4.88,0,0,1,15.73,76Z" transform="translate(-3.6 -13.02)"/><path class="cls-2" d="M104.85,81.11,98.9,101.4a4.88,4.88,0,0,1-4.68,3.51H46.43l5.94-20.29a4.88,4.88,0,0,1,4.68-3.51Z" transform="translate(-3.6 -13.02)"/><path class="cls-2" d="M55.27,31.46,44.78,67.26a4.88,4.88,0,0,1-4.68,3.51H13.6L24.08,35a4.88,4.88,0,0,1,4.68-3.51Z" transform="translate(-3.6 -13.02)"/><path class="cls-3" d="M157.62,36.68v36c0,7.44-4.47,13.21-12,15a36.55,36.55,0,0,1-7.24.68h-6.5s0,0,0-.06V77.78s0-.06,0-.06a46.32,46.32,0,0,0,7.07-.33c2.53-.45,5.13-1.31,6.71-3.47,1.12-1.54,1.06-3.44,1.06-5.25V38.28Z" transform="translate(-3.6 -13.02)"/><path class="cls-3" d="M182.11,88.27c11.67,0,19.69-8,19.69-19.45s-8-19.45-19.69-19.45-19.62,8-19.62,19.45,8,19.45,19.62,19.45m0-29.6c5.46,0,9.32,4.23,9.32,10.15S187.56,79,182.11,79s-9.25-4.23-9.25-10.15,3.86-10.15,9.25-10.15" transform="translate(-3.6 -13.02)"/><path class="cls-3" d="M219.54,88.27A13.35,13.35,0,0,0,230.8,82v4.86h10.08V50.78l-10.36,1.6v18.7c0,4.58-3.32,7.89-7.39,7.89s-6.56-3.1-6.56-7.47V50.78l-10.36,1.6v21c0,8.66,5.38,14.93,13.33,14.93" transform="translate(-3.6 -13.02)"/><polygon class="cls-3" points="253.69 21.55 243.33 23.14 243.33 73.84 253.69 73.84 253.69 21.55"/><path class="cls-3" d="M300.39,68.68c0-11.42-7.74-19.31-19.06-19.31s-19.48,7.89-19.48,19.17c0,11.62,8.08,19.73,19.48,19.73,8.35,0,15.6-4.58,17.47-10.86l.08-.33H288.64a9.27,9.27,0,0,1-7.05,3.08c-4.69,0-9.11-3.38-9-8.38l27.69.07a21.47,21.47,0,0,0,.15-3.17m-27.9-3.25c.89-4.79,4.07-8,8.63-8a8.77,8.77,0,0,1,8.77,8Z" transform="translate(-3.6 -13.02)"/><path class="cls-3" d="M313.38,60.71c0-2.33,2.56-4,5.8-4,4.14,0,7.18,2,7.25,5h9.12c-.07-7.26-6.91-12.47-16.37-12.47-8.63,0-15.13,5.07-15.2,12.12,0,15.22,22.72,8,22.79,15.29,0,2.47-2.76,4.3-6.56,4.3-4.49,0-7.81-2.54-7.81-6.13h-8.77c0,7.89,6.84,13.6,16.44,13.6,9.81,0,16.65-5.43,16.65-12.9-.07-13.59-23.41-7.88-23.34-14.79" transform="translate(-3.6 -13.02)"/><polygon class="cls-3" points="370.77 66.51 347.7 66.51 347.7 23.94 339.41 25.54 339.41 73.84 370.77 73.84 370.77 66.51"/><path class="cls-3" d="M395.23,88.27a15.62,15.62,0,0,0,13-6.77v5.36h7.53V51.06l-7.53,1.42v3.94a15.63,15.63,0,0,0-13-6.77c-10.29,0-17.61,8.1-17.61,19.31s7.31,19.31,17.61,19.31m1.45-31.86c6.7,0,11.53,5.29,11.53,12.54s-4.84,12.54-11.53,12.54-11.6-5.36-11.6-12.54,4.9-12.54,11.6-12.54" transform="translate(-3.6 -13.02)"/><path class="cls-3" d="M443.23,49.65a15.59,15.59,0,0,0-12.71,6.27V34.85L423,36.45V86.87h7.32v-5a15.7,15.7,0,0,0,12.92,6.41c10.15,0,17.61-8.11,17.61-19.31s-7.39-19.32-17.61-19.32m-1.45,31.43c-6.7,0-11.53-5.07-11.53-12.12s4.84-12.12,11.53-12.12,11.6,5.07,11.6,12.12-5,12.12-11.6,12.12" transform="translate(-3.6 -13.02)"/><path class="cls-3" d="M480.94,82.14c-5.25,0-9.05-3.1-9.05-7.4H465c0,7.89,6.7,13.6,16,13.6,8.91,0,15.26-5.14,15.26-12.12-.07-13.25-23.69-7.54-23.62-15.36,0-2.89,3.18-5,7-5,5,0,8.7,2.47,8.77,6h7c0-7.12-6.63-12.26-15.68-12.26-7.94,0-14.09,4.79-14.09,11.35,0,14.73,23.42,7.89,23.48,15.93,0,3-3.38,5.27-8.08,5.27" transform="translate(-3.6 -13.02)"/></svg>