<svg width="62" height="62" viewBox="0 0 62 62" fill="none" xmlns="http://www.w3.org/2000/svg">
<path d="M58.8519 20.6271L54.5978 22.9533L52.2716 27.2073L49.9454 22.9533L45.6914 20.6271L49.9454 18.3009L52.2716 14.0469L54.5978 18.3009L58.8519 20.6271Z" fill="#F7D694"/>
<path d="M22.5237 50.9005L18.2697 53.2268L15.9435 57.4808L13.6173 53.2268L9.36328 50.9005L13.6173 48.5743L15.9435 44.3203L18.2697 48.5743L22.5237 50.9005Z" fill="#F7D694"/>
<path d="M40.5277 29.1037L33.1421 33.1421L29.1037 40.5277L25.0652 33.1421L17.6797 29.1037L25.0652 25.0652L29.1037 17.6797L33.1421 25.0652L40.5277 29.1037Z" fill="#FCD884"/>
<path d="M50.3753 52.2712L46.1213 54.5974L43.7951 58.8514L41.4689 54.5974L37.2148 52.2712L41.4689 49.9449L43.7951 45.6909L46.1213 49.9449L50.3753 52.2712Z" fill="#FFCD02"/>
<path d="M16.3089 9.72867L12.0549 12.0549L9.72867 16.3089L7.40246 12.0549L3.14844 9.72867L7.40246 7.40246L9.72867 3.14844L12.0549 7.40246L16.3089 9.72867Z" fill="#FFCD02"/>
</svg>
