<?xml version="1.0" encoding="utf-8"?>
<!-- Generator: Adobe Illustrator 28.1.0, SVG Export Plug-In . SVG Version: 6.00 Build 0)  -->
<svg version="1.1" id="Layer_1" xmlns="http://www.w3.org/2000/svg" xmlns:xlink="http://www.w3.org/1999/xlink" x="0px" y="0px"
	 viewBox="0 0 600 600" style="enable-background:new 0 0 600 600;" xml:space="preserve">
<style type="text/css">
	.st0{fill:#00549D;}
	.st1{fill:#FCB619;}
	.st2{fill:#444445;}
</style>
<g>
	<path class="st0" d="M551.7,30.8L449.7,379c-3.6,12.2-14.7,20.6-27.4,20.6H266.9L368.9,51.4c3.6-12.2,14.8-20.6,27.4-20.6H551.7z"
		/>
	<path class="st0" d="M266.9,399.5l-43.7,149.1c-3.6,12.2-14.7,20.6-27.4,20.6H3.4L47,420c3.6-12.2,14.7-20.6,27.4-20.6H266.9z"/>
	<path class="st1" d="M596.6,429.7l-34.8,118.9c-3.6,12.2-14.7,20.6-27.4,20.6h-280l34.8-118.9c3.6-12.2,14.7-20.6,27.4-20.6H596.6z
		"/>
	<path class="st1" d="M306.1,138.9l-61.4,209.7c-3.6,12.2-14.7,20.6-27.4,20.6H62l61.4-209.7c3.6-12.2,14.7-20.6,27.4-20.6H306.1z"
		/>
</g>
</svg>
