<svg width="106" height="60" viewBox="0 0 106 60" fill="none" xmlns="http://www.w3.org/2000/svg">
<path d="M34.4309 30.5271C34.0132 29.4703 33.0504 28.7559 31.9179 28.6625L24.6615 28.0639L21.0408 21.7469C20.4755 20.761 19.4199 20.1923 18.2855 20.2628C17.1514 20.3332 16.1742 21.0281 15.7352 22.0763L12.9241 28.7926L5.79764 30.2841C4.6852 30.5167 3.81811 31.3447 3.53434 32.4453C3.25055 33.5456 3.60966 34.6899 4.47109 35.4319L9.98992 40.1812L9.20634 47.4197C9.08396 48.5498 9.60374 49.6302 10.5624 50.2403C11.1046 50.5849 11.723 50.7384 12.334 50.7005C12.8041 50.6713 13.2695 50.5285 13.6921 50.2719L19.9143 46.491L26.5564 49.4732C27.5932 49.9387 28.7813 49.7783 29.6575 49.0548C30.5338 48.3312 30.9159 47.1944 30.6547 46.0882L28.9816 39.0021L33.8706 33.6063C34.634 32.764 34.8484 31.5841 34.4309 30.5271Z" fill="#F7CB4F"/>
<path d="M31.9176 28.6622L31.7564 28.649L24.1233 37.1799C23.7309 37.613 23.5768 38.2114 23.711 38.78L26.2907 49.3533L26.5561 49.4725C27.5929 49.938 28.7811 49.7776 29.6572 49.0541C30.5335 48.3306 30.9156 47.1937 30.6544 46.0875L28.9813 39.0014L33.8703 33.6056C34.6336 32.7634 34.8482 31.5834 34.4306 30.5262C34.0127 29.4696 33.0499 28.7553 31.9176 28.6622Z" fill="#FBAB00"/>
<path d="M66.9786 16.863C66.5609 15.8063 65.598 15.0919 64.4655 14.9984L57.2091 14.3998L53.5889 8.08286C53.0236 7.09696 51.9679 6.52826 50.8338 6.59867C49.6994 6.66909 48.7224 7.36399 48.2835 8.41224L45.472 15.1285L38.3455 16.62C37.233 16.8525 36.366 17.6807 36.0822 18.7812C35.7984 19.8817 36.1575 21.0259 37.0189 21.7679L42.538 26.5173L41.7542 33.7557C41.6318 34.8857 42.1516 35.9662 43.1103 36.5762C44.0694 37.186 45.268 37.198 46.2397 36.608L52.4619 32.8271L59.104 35.8094C59.555 36.012 60.0344 36.0959 60.5047 36.0667C61.1157 36.0288 61.7104 35.7995 62.2057 35.3909C63.0818 34.6672 63.464 33.5305 63.2026 32.4245L61.5294 25.3385L66.4189 19.9426C67.1817 19.1 67.3963 17.92 66.9786 16.863Z" fill="#F7CB4F"/>
<path d="M62.2077 35.3914C63.0838 34.6676 63.466 33.531 63.2046 32.425L61.5315 25.339L66.4209 19.9431C67.1837 19.1007 67.3985 17.9207 66.9808 16.8637C66.5631 15.8069 65.6002 15.0926 64.4678 14.9991L64.4013 14.9937L56.6732 23.5166C56.281 23.9495 56.1267 24.548 56.2609 25.1167L58.289 33.7055L58.7682 35.6577L59.106 35.8092C59.5569 36.0118 60.0364 36.0957 60.5067 36.0665C61.1177 36.0292 61.7126 35.8002 62.2077 35.3914Z" fill="#FBAB00"/>
<path d="M100.911 26.4006C100.493 25.3438 99.53 24.6295 98.3975 24.536L91.1411 23.9374L87.5204 17.6205C86.9552 16.6346 85.8997 16.0658 84.7654 16.1363C83.631 16.2067 82.654 16.9016 82.215 17.9498L79.4035 24.6661L72.2771 26.1576C71.1646 26.3903 70.2975 27.2183 70.0138 28.3188C69.7302 29.4193 70.0889 30.5637 70.9507 31.3053L76.4696 36.0549L75.6858 43.2933C75.5634 44.4233 76.0832 45.5038 77.0419 46.1138C78.001 46.7236 79.1994 46.7358 80.1713 46.1456L86.3935 42.3647L93.0356 45.347C93.4865 45.5496 93.966 45.6335 94.4363 45.6043C95.0473 45.5664 95.6419 45.3371 96.1373 44.9285C97.0134 44.2048 97.3955 43.0681 97.1341 41.9621L95.461 34.8761L100.35 29.4802C101.114 28.6373 101.328 27.4574 100.911 26.4006Z" fill="#F7CB4F"/>
<path d="M100.909 26.3996C100.491 25.3429 99.5285 24.6285 98.3961 24.535L98.2673 24.5244L90.6015 33.0527C90.2093 33.4858 90.055 34.0842 90.1892 34.6528L92.5752 45.1395L93.0341 45.3456C93.485 45.5481 93.9645 45.6321 94.4348 45.6029C95.0458 45.5649 95.6404 45.3357 96.1358 44.9271C97.0119 44.2034 97.3941 43.0667 97.1326 41.9607L95.4595 34.8747L100.349 29.4788C101.112 28.6363 101.327 27.4564 100.909 26.3996Z" fill="#FBAB00"/>
</svg>
