<svg width="40" height="40" viewBox="0 0 40 40" fill="none" xmlns="http://www.w3.org/2000/svg">
<path d="M27.9677 20.6863V26.1222H29.1935V17.5801C29.1935 16.8939 29.7423 16.3376 30.4194 16.3376H31.6452C32.3222 16.3376 32.871 16.8939 32.871 17.5801V26.1222H33.4839C34.1609 26.1222 34.7097 26.6784 34.7097 27.3646C34.7097 28.0509 34.1609 28.6071 33.4839 28.6071C33.2629 28.6071 18.9014 28.6071 18.7742 28.6071C18.0972 28.6071 17.5484 28.0509 17.5484 27.3646C17.5484 26.6784 18.0972 26.1222 18.7742 26.1222H19.3871V23.7925C19.3871 23.1064 19.9359 22.55 20.6129 22.55H21.8387C22.5157 22.55 23.0645 23.1064 23.0645 23.7925V26.1222H24.2903V20.6863C24.2903 20.0001 24.8391 19.4438 25.5161 19.4438H26.7419C27.419 19.4438 27.9677 20.0002 27.9677 20.6863ZM21.8387 10.5912C21.8387 9.90492 21.2899 9.34868 20.6129 9.34868H15.0968C14.4197 9.34868 13.871 9.90492 13.871 10.5912C13.871 11.2774 14.4197 11.8336 15.0968 11.8336H20.6129C21.2899 11.8336 21.8387 11.2774 21.8387 10.5912ZM17.5484 16.4153H25.2097C25.8867 16.4153 26.4355 15.859 26.4355 15.1728C26.4355 14.4866 25.8867 13.9303 25.2097 13.9303H17.5484C16.8714 13.9303 16.3226 14.4866 16.3226 15.1728C16.3226 15.859 16.8714 16.4153 17.5484 16.4153ZM35.3226 5H10.3468C8.31906 5 6.66935 6.67215 6.66935 8.72744V14.4931C5.17004 15.5264 4.18319 17.269 4.18319 19.2412C4.18319 22.4052 6.72268 24.9792 9.84419 24.9792C12.9657 24.9792 15.5053 22.4052 15.5053 19.2412C15.5053 15.8151 12.5342 13.1082 9.12104 13.5517V8.72744C9.12104 8.04229 9.67097 7.48496 10.3469 7.48496H35.3227C35.9985 7.48496 36.5485 8.04229 36.5485 8.72744V29.2284C36.5485 29.9135 35.9985 30.4708 35.3227 30.4708H18.5794C18.3635 29.3664 17.6317 28.4146 16.5934 27.9447L13.6201 26.599C13.3115 26.4594 13.1654 26.4911 12.0884 26.4911C11.5242 26.4911 11.0329 26.8814 10.8982 27.4367C10.623 28.5694 9.02283 28.5702 8.74786 27.4368C8.61302 26.8815 8.12171 26.4911 7.55753 26.4911C6.47644 26.4911 6.33302 26.46 6.02581 26.599L3.05246 27.9447C1.80566 28.5091 1 29.768 1 31.152V33.7575C1 34.4438 1.54878 35 2.22581 35H17.4201C18.0971 35 18.6459 34.4438 18.6459 33.7575V32.9559H35.3226C37.3503 32.9559 39 31.2837 39 29.2284V8.72752C39 6.67215 37.3503 5 35.3226 5Z" fill="#CBCDD6"/>
</svg>
