<svg width="40" height="40" viewBox="0 0 40 40" fill="none" xmlns="http://www.w3.org/2000/svg">
<path fill-rule="evenodd" clip-rule="evenodd" d="M20 0.166504C19.218 0.166504 18.5833 0.801171 18.5833 1.58317V7.4935C16.9329 8.07717 15.75 9.65109 15.75 11.4998C15.75 12.1558 15.8988 12.7791 16.1651 13.3344C16.1112 13.3883 16.0588 13.4478 16.0135 13.5115L11.9647 19.1782C11.5099 19.8143 11.6615 20.6983 12.2976 21.153C12.9322 21.6078 13.8177 21.4576 14.2724 20.8215L18.1881 15.3433C18.7377 15.6025 19.3526 15.7498 20 15.7498C20.6474 15.7498 21.2622 15.6025 21.8119 15.3433L25.7276 20.8215C26.1823 21.4576 27.0677 21.6078 27.7038 21.153C28.3385 20.6983 28.4901 19.8143 28.0353 19.1782L23.9865 13.5115C23.9412 13.4478 23.8888 13.3883 23.8349 13.3344C24.1012 12.7791 24.25 12.1558 24.25 11.4998C24.25 9.65109 23.0671 8.07717 21.4167 7.4935V1.58317C21.4167 0.801171 20.782 0.166504 20 0.166504ZM20 10.0832C20.782 10.0832 21.4167 10.7178 21.4167 11.4998C21.4167 12.2818 20.782 12.9165 20 12.9165C19.218 12.9165 18.5833 12.2818 18.5833 11.4998C18.5833 10.7178 19.218 10.0832 20 10.0832ZM7.25 22.8332C4.904 22.8332 3 24.7372 3 27.0832V35.5832C3 37.9292 4.904 39.8332 7.25 39.8332H32.75C35.096 39.8332 37 37.9292 37 35.5832V27.0832C37 24.7372 35.096 22.8332 32.75 22.8332H7.25ZM11.5 28.4998C12.282 28.4998 12.9167 29.1345 12.9167 29.9165V32.7498C12.9167 33.5318 12.282 34.1665 11.5 34.1665C10.718 34.1665 10.0833 33.5318 10.0833 32.7498V29.9165C10.0833 29.1345 10.718 28.4998 11.5 28.4998ZM17.1667 28.4998C17.9487 28.4998 18.5833 29.1345 18.5833 29.9165V32.7498C18.5833 33.5318 17.9487 34.1665 17.1667 34.1665C16.3847 34.1665 15.75 33.5318 15.75 32.7498V29.9165C15.75 29.1345 16.3847 28.4998 17.1667 28.4998ZM22.8333 28.4998C23.6153 28.4998 24.25 29.1345 24.25 29.9165V32.7498C24.25 33.5318 23.6153 34.1665 22.8333 34.1665C22.0513 34.1665 21.4167 33.5318 21.4167 32.7498V29.9165C21.4167 29.1345 22.0513 28.4998 22.8333 28.4998ZM28.5 28.4998C29.282 28.4998 29.9167 29.1345 29.9167 29.9165V32.7498C29.9167 33.5318 29.282 34.1665 28.5 34.1665C27.718 34.1665 27.0833 33.5318 27.0833 32.7498V29.9165C27.0833 29.1345 27.718 28.4998 28.5 28.4998Z" fill="#CBCDD6"/>
</svg>
