<svg width="40" height="40" viewBox="0 0 40 40" fill="none" xmlns="http://www.w3.org/2000/svg">
<g clip-path="url(#clip0_10032_2607)">
<path d="M20.6361 23.0917C20.797 22.9328 21.0338 22.8785 21.2476 22.9521L31.7866 26.4713L30.1496 12.2409H26.1556V7.92649C26.1556 3.55575 22.3977 0 17.7998 0C13.2019 0 9.44397 3.55541 9.44397 7.92649V12.2409H5.02093L2.51199 34.0467C2.37511 35.2377 2.75013 36.3725 3.56846 37.2904C4.47938 38.2912 5.77398 38.8561 7.1272 38.8431H25.5757L20.4922 23.6825C20.4203 23.4744 20.4766 23.2436 20.6361 23.0917ZM24.1529 19.891C23.996 19.9123 23.8371 19.8707 23.7113 19.7751C23.585 19.6792 23.5021 19.5373 23.4811 19.3804L22.8843 15.007C22.851 14.7935 22.9356 14.579 23.1054 14.4455C23.2753 14.3122 23.5038 14.2809 23.7033 14.3639C23.9024 14.4468 24.0416 14.631 24.0666 14.8455L24.6635 19.2189C24.7081 19.5453 24.4796 19.8464 24.1529 19.891ZM10.6377 7.92649C10.6377 4.21421 13.86 1.19369 17.7998 1.19369C21.7395 1.19369 24.9619 4.21421 24.9619 7.92649V12.2409H10.6377V7.92649ZM17.4397 26.6045C17.4184 26.7614 17.3355 26.9036 17.2096 26.9992C17.0834 27.0951 16.9245 27.1367 16.7676 27.1154L12.3945 26.5186C12.1817 26.4912 11.9999 26.352 11.9179 26.1539C11.8363 25.9557 11.8673 25.7285 11.9992 25.5593C12.1311 25.3901 12.3436 25.3049 12.5557 25.3359L16.9292 25.9327C17.2552 25.977 17.484 26.2778 17.4397 26.6041V26.6045ZM17.3045 19.7564C17.0714 19.9892 16.6937 19.9892 16.4605 19.7564L14.3723 17.6675C14.1391 17.4343 14.1391 17.0567 14.3723 16.8235C14.6054 16.5904 14.9831 16.5904 15.2162 16.8235L17.3045 18.9118C17.5377 19.1449 17.5377 19.5226 17.3045 19.7558V19.7564Z" fill="#CBCDD6"/>
<path d="M28.793 38.8226C29.7439 38.6824 30.6295 38.255 31.3302 37.5973L30.1185 36.3926L28.793 38.8226Z" fill="#CBCDD6"/>
<path d="M32.3664 32.3408C32.3937 32.1549 32.5063 31.9927 32.6711 31.9025L37.0725 29.5018L22.0039 24.4556L27.0498 39.5242L29.4508 35.1228C29.5407 34.9579 29.7032 34.845 29.8891 34.8181C30.0749 34.7911 30.2625 34.853 30.3957 34.9856L35.4409 40.0001L37.5485 37.8925L32.5339 32.8473C32.4014 32.7141 32.3394 32.5263 32.3664 32.3408Z" fill="#CBCDD6"/>
</g>
<defs>
<clipPath id="clip0_10032_2607">
<rect width="40" height="40" fill="white"/>
</clipPath>
</defs>
</svg>
