<svg width="40" height="40" viewBox="0 0 40 40" fill="none" xmlns="http://www.w3.org/2000/svg">
<path d="M22.0072 6.05589C21.8072 5.9599 21.5752 5.9439 21.3672 6.0239C21.1592 6.10389 20.9992 6.26389 20.9112 6.46388C20.6392 7.13586 20.4712 7.84784 20.4312 8.59981C20.4232 8.81581 20.5032 9.0318 20.6552 9.19179C20.7992 9.35179 21.0152 9.43978 21.2312 9.43978H21.2392C21.4552 9.43978 21.7432 9.70378 21.8392 10.1278C21.9432 10.5517 21.7832 10.9117 21.5912 11.0077C21.3912 11.0957 21.2392 11.2717 21.1672 11.4797C21.1032 11.6957 21.1272 11.9197 21.2312 12.1197C21.5832 12.7517 22.0392 13.3197 22.5911 13.8156C22.7591 13.9676 22.9751 14.0396 23.1991 14.0156C23.4151 13.9996 23.6151 13.8876 23.7591 13.7196C23.8871 13.5517 24.2791 13.4797 24.6711 13.6716C25.0631 13.8556 25.2471 14.1996 25.1991 14.4156C25.1511 14.6316 25.1911 14.8556 25.3111 15.0396C25.439 15.2236 25.631 15.3516 25.847 15.3836C26.231 15.4476 26.591 15.4796 26.935 15.4796C27.279 15.4796 27.639 15.4476 28.023 15.3836C28.239 15.3516 28.4389 15.2236 28.5589 15.0396C28.6789 14.8556 28.7189 14.6316 28.6709 14.4156C28.6229 14.1996 28.8069 13.8556 29.1989 13.6716C29.5909 13.4797 29.9829 13.5437 30.1189 13.7196C30.2549 13.8876 30.4549 13.9996 30.6709 14.0156C30.8949 14.0396 31.1109 13.9676 31.2789 13.8156C31.8308 13.3197 32.2868 12.7517 32.6388 12.1197C32.7508 11.9197 32.7668 11.6957 32.7028 11.4797C32.6308 11.2717 32.4788 11.0957 32.2788 11.0077C32.1268 10.9357 31.9988 10.6957 31.9988 10.3838C31.9988 10.3038 32.0068 10.2158 32.0308 10.1278C32.1268 9.70378 32.4148 9.43978 32.6388 9.43978C32.8548 9.43978 33.0708 9.35179 33.2228 9.19179C33.3748 9.0318 33.4468 8.81581 33.4388 8.59981C33.3988 7.84784 33.2388 7.13586 32.9588 6.46388C32.8708 6.26389 32.7108 6.10389 32.5028 6.0239C32.2948 5.9439 32.0628 5.9599 31.8628 6.05589C31.6708 6.15189 31.2949 6.0479 31.0229 5.70391C30.7509 5.36792 30.7269 4.97593 30.8629 4.79994C31.0069 4.63194 31.0629 4.40795 31.0309 4.19196C31.0069 3.97596 30.8869 3.77597 30.7029 3.64797C30.1029 3.22399 29.4469 2.904 28.7429 2.704C28.5269 2.64001 28.303 2.67201 28.111 2.784C27.919 2.896 27.783 3.07999 27.735 3.29599C27.687 3.51198 27.367 3.73597 26.935 3.73597C26.503 3.73597 26.183 3.51198 26.135 3.29599C26.087 3.07999 25.951 2.896 25.759 2.784C25.575 2.67201 25.343 2.64001 25.1351 2.704C24.4231 2.904 23.7671 3.22399 23.1671 3.64797C22.9831 3.77597 22.8631 3.97596 22.8391 4.19196C22.8071 4.40795 22.8711 4.63194 23.0071 4.79994C23.1431 4.97593 23.1191 5.36792 22.8551 5.70391C22.5831 6.0479 22.1992 6.15189 22.0072 6.05589ZM26.935 6.26389C28.4229 6.26389 29.6309 7.47985 29.6309 8.9598C29.6309 10.4478 28.4229 11.6557 26.935 11.6557C25.447 11.6557 24.2391 10.4478 24.2391 8.9598C24.2391 7.47985 25.447 6.26389 26.935 6.26389Z" fill="#CBCDD6"/>
<path d="M35.5514 8.63965H35.0314C35.0234 9.26363 34.7914 9.85561 34.3834 10.2876C34.2794 10.3916 34.1674 10.4876 34.0474 10.5756C34.1194 10.6956 34.1674 10.8156 34.2154 10.9516C34.4234 11.6556 34.3514 12.3195 34.0314 12.8955C33.5995 13.6715 33.0315 14.3835 32.3515 14.9994C31.9115 15.3914 31.3435 15.6154 30.7516 15.6154C30.6716 15.6154 30.5836 15.6074 30.5036 15.5994C30.3676 15.5914 30.2316 15.5674 30.1036 15.5274C30.0476 15.6634 29.9756 15.7834 29.8956 15.9034C29.5276 16.4714 28.9276 16.8554 28.2556 16.9594C27.8076 17.0314 27.3677 17.0714 26.9357 17.0714C26.5037 17.0714 26.0637 17.0314 25.5837 16.9514C24.9677 16.8634 24.3758 16.4954 23.9998 15.9434C23.9118 15.8074 23.8318 15.6714 23.7758 15.5274C23.6238 15.5674 23.4718 15.5914 23.3198 15.5994C23.2878 15.6074 23.1998 15.6154 23.1198 15.6154C22.5278 15.6154 21.9598 15.3914 21.5199 14.9914C20.8399 14.3835 20.2719 13.6715 19.8319 12.8875C19.5199 12.2795 19.4559 11.6316 19.6319 11.0156C19.6879 10.8636 19.7519 10.7116 19.8239 10.5756C19.6959 10.4876 19.5759 10.3756 19.4719 10.2556C19.0719 9.83961 18.8479 9.24763 18.8399 8.63965H6.75234C5.04039 8.63965 3.64844 10.0316 3.64844 11.7435V30.4069H36.3514V9.47162L36.3434 9.46362C36.3434 9.45562 36.3514 9.44762 36.3514 9.44762C36.3514 9.00764 35.9914 8.63965 35.5514 8.63965ZM22.4558 21.3112C22.3038 21.4712 22.0958 21.5672 21.8718 21.5672C21.5759 21.5672 21.1919 21.8872 21.0719 22.4312C20.9439 22.9752 21.1519 23.4312 21.4159 23.5592C21.6159 23.6472 21.7678 23.8232 21.8398 24.0311C21.9118 24.2471 21.8878 24.4711 21.7758 24.6711C21.3839 25.3751 20.8719 26.0231 20.2479 26.5751C20.0879 26.7191 19.8719 26.7991 19.6479 26.7751C19.4319 26.7591 19.2239 26.6471 19.0879 26.4791C18.9039 26.2471 18.416 26.1511 17.912 26.3911C17.408 26.6311 17.184 27.071 17.248 27.359C17.296 27.575 17.256 27.807 17.136 27.991C17.016 28.175 16.816 28.295 16.6 28.335C16.168 28.407 15.768 28.439 15.3841 28.439C14.9921 28.439 14.5921 28.407 14.1601 28.335C13.9441 28.295 13.7521 28.175 13.6241 27.991C13.5041 27.807 13.4641 27.575 13.5121 27.359C13.5841 27.071 13.3521 26.6311 12.8481 26.3911C12.3442 26.1431 11.8562 26.2391 11.6722 26.4791C11.5362 26.6471 11.3362 26.7591 11.1122 26.7751C10.8962 26.7991 10.6802 26.7271 10.5122 26.5751C9.88823 26.0231 9.37625 25.3751 8.98426 24.6711C8.87227 24.4711 8.85627 24.2471 8.92026 24.0311C8.99226 23.8232 9.14426 23.6472 9.34425 23.5592C9.60824 23.4312 9.81624 22.9752 9.68824 22.4312C9.56824 21.8872 9.18426 21.5672 8.88827 21.5672C8.66427 21.5672 8.45628 21.4712 8.30429 21.3112C8.15229 21.1512 8.08029 20.9432 8.08829 20.7193C8.13629 19.8793 8.32028 19.0793 8.62427 18.3353C8.71227 18.1273 8.87227 17.9673 9.08026 17.8873C9.28825 17.8153 9.52025 17.8233 9.72024 17.9193C9.98423 18.0553 10.4722 17.9273 10.8162 17.4954C11.1682 17.0554 11.1842 16.5594 10.9922 16.3274C10.8562 16.1514 10.7922 15.9354 10.8242 15.7114C10.8562 15.4954 10.9762 15.2954 11.1522 15.1674C11.8242 14.6954 12.5681 14.3355 13.3601 14.1115C13.5681 14.0475 13.8001 14.0795 13.9841 14.1915C14.1761 14.3035 14.3121 14.4875 14.3601 14.7034C14.4241 14.9914 14.8241 15.2954 15.3841 15.2954C15.936 15.2954 16.336 14.9914 16.4 14.7034C16.448 14.4875 16.584 14.3035 16.776 14.1915C16.96 14.0795 17.192 14.0475 17.408 14.1115C18.192 14.3355 18.9359 14.6954 19.6079 15.1674C19.7919 15.2954 19.9039 15.4954 19.9359 15.7114C19.9679 15.9354 19.9039 16.1514 19.7679 16.3274C19.5839 16.5594 19.5999 17.0554 19.9439 17.4954C20.2959 17.9273 20.7759 18.0553 21.0399 17.9193C21.2399 17.8233 21.4719 17.8153 21.6798 17.8873C21.8878 17.9673 22.0478 18.1273 22.1358 18.3353C22.4478 19.0793 22.6238 19.8873 22.6718 20.7193C22.6878 20.9352 22.6078 21.1592 22.4558 21.3112Z" fill="#CBCDD6"/>
<path d="M15.3847 18.1753C13.7528 18.1753 12.4248 19.4953 12.4248 21.1272C12.4248 22.7591 13.7528 24.0871 15.3847 24.0871C17.0167 24.0871 18.3366 22.7591 18.3366 21.1272C18.3366 19.4873 17.0167 18.1753 15.3847 18.1753Z" fill="#CBCDD6"/>
<path d="M39.1997 32.0146H0.80095C0.360965 32.0146 0.000976562 32.3746 0.000976562 32.8146C0.000976562 35.3105 2.02491 37.3345 4.52083 37.3345H35.4798C37.9757 37.3345 39.9997 35.3105 39.9997 32.8146C39.9997 32.3746 39.6397 32.0146 39.1997 32.0146Z" fill="#CBCDD6"/>
</svg>
