<svg width="40" height="40" viewBox="0 0 40 40" fill="none" xmlns="http://www.w3.org/2000/svg">
<path d="M17.4054 21.8597C17.4054 20.0727 18.3708 18.4727 19.9319 17.6831L24.04 15.5636C24.6973 15.2312 25.4162 15.0649 26.1351 15.0649H31.7838V5.71429C31.7838 2.55584 29.2573 0 26.1351 0H7.64865C4.52649 0 2 2.55584 2 5.71429V32.7273C2 35.8857 4.52649 38.4416 7.64865 38.4416H21.7395C19.0076 35.4701 17.4054 31.5013 17.4054 27.2831V21.8597ZM7.64865 6.23377H22.027C22.8774 6.23377 23.5676 6.93195 23.5676 7.79221C23.5676 8.65247 22.8774 9.35065 22.027 9.35065H7.64865C6.79827 9.35065 6.10811 8.65247 6.10811 7.79221C6.10811 6.93195 6.79827 6.23377 7.64865 6.23377ZM13.8108 21.8182H7.64865C6.79827 21.8182 6.10811 21.12 6.10811 20.2597C6.10811 19.3995 6.79827 18.7013 7.64865 18.7013H13.8108C14.6612 18.7013 15.3514 19.3995 15.3514 20.2597C15.3514 21.12 14.6612 21.8182 13.8108 21.8182ZM15.8649 15.5844H7.64865C6.79827 15.5844 6.10811 14.8862 6.10811 14.026C6.10811 13.1657 6.79827 12.4675 7.64865 12.4675H15.8649C16.7152 12.4675 17.4054 13.1657 17.4054 14.026C17.4054 14.8862 16.7152 15.5844 15.8649 15.5844ZM39.1578 20.4592L35.0497 18.3501C34.8341 18.24 34.5937 18.1818 34.3514 18.1818H26.1351C25.8928 18.1818 25.6545 18.24 25.4368 18.3501L21.3286 20.4592C20.811 20.7252 20.4865 21.2634 20.4865 21.8494V27.2894C20.4865 32.8104 23.8962 37.8244 28.9779 39.7673C29.3846 39.9231 29.8119 40 30.2412 40C30.6705 40 31.1018 39.921 31.5147 39.7652C36.5903 37.8244 40 32.8104 40 27.2894V21.8494C40 21.2634 39.6755 20.7252 39.1578 20.4592ZM34.4746 26.9881L30.7773 31.1751C30.4836 31.5055 30.0666 31.6945 29.627 31.6945C29.1875 31.6945 28.7705 31.5055 28.4768 31.1751L26.0119 28.3823C25.447 27.7403 25.5004 26.7553 26.1351 26.1818C26.7719 25.6104 27.7414 25.6623 28.3124 26.3065L29.6291 27.7964L32.1761 24.9101C32.741 24.2681 33.7146 24.214 34.3534 24.7855C34.9881 25.359 35.0415 26.3439 34.4767 26.986L34.4746 26.9881Z" fill="#CBCDD6"/>
</svg>
