<svg width="40" height="40" viewBox="0 0 40 40" fill="none" xmlns="http://www.w3.org/2000/svg">
<path d="M32.5 11.6668C33.5051 11.6668 34.5093 11.8857 35.485 12.317C35.747 12.4334 36.0538 12.4073 36.2923 12.2429C36.5299 12.0802 36.6674 11.8059 36.6544 11.5179C36.5746 9.7324 35.1155 8.3335 33.3333 8.3335H3.33328C1.49492 8.3335 0 9.82842 0 11.6668V20.0001C0 21.8385 1.49492 23.3335 3.33336 23.3335H22.5C22.9606 23.3335 23.3334 22.9608 23.3334 22.5001V21.6668C23.3334 20.6007 23.8599 19.5883 24.7404 18.9584C24.9341 18.8201 25.0594 18.6061 25.0846 18.3701C25.4956 14.5485 28.6841 11.6668 32.5 11.6668ZM7.69367 15.945C8.09242 16.1753 8.22914 16.6847 7.99883 17.0835C7.84422 17.3504 7.56422 17.5001 7.27617 17.5001C7.13453 17.5001 6.99133 17.4644 6.86031 17.3887L6.66664 17.2769V17.5001C6.66664 17.9608 6.29391 18.3335 5.83328 18.3335C5.37274 18.3335 5 17.9608 5 17.5001V17.2769L4.80633 17.3887C4.67531 17.4644 4.53211 17.5001 4.39047 17.5001C4.10234 17.5001 3.82242 17.3504 3.66781 17.0835C3.4375 16.6847 3.57422 16.1753 3.97297 15.945L4.16617 15.8335L3.97297 15.722C3.57422 15.4917 3.4375 14.9822 3.66781 14.5835C3.89813 14.1847 4.40836 14.048 4.80633 14.2783L5 14.3901V14.1668C5 13.7062 5.37274 13.3334 5.83336 13.3334C6.29398 13.3334 6.66672 13.7062 6.66672 14.1668V14.3901L6.86039 14.2783C7.25594 14.0479 7.76781 14.1847 7.99891 14.5834C8.22922 14.9822 8.0925 15.4916 7.69375 15.7219L7.50055 15.8334L7.69367 15.945ZM14.3604 15.945C14.7591 16.1753 14.8959 16.6847 14.6655 17.0835C14.5109 17.3504 14.2309 17.5001 13.9429 17.5001C13.8013 17.5001 13.658 17.4644 13.527 17.3887L13.3334 17.2769V17.5001C13.3334 17.9608 12.9606 18.3335 12.5 18.3335C12.0394 18.3335 11.6666 17.9608 11.6666 17.5001V17.2769L11.473 17.3887C11.342 17.4644 11.1988 17.5001 11.0571 17.5001C10.769 17.5001 10.4891 17.3504 10.3345 17.0835C10.1041 16.6847 10.2409 16.1753 10.6396 15.945L10.8328 15.8335L10.6396 15.722C10.2409 15.4917 10.1041 14.9822 10.3345 14.5835C10.564 14.1847 11.0734 14.048 11.473 14.2783L11.6666 14.3901V14.1669C11.6666 13.7062 12.0394 13.3335 12.5 13.3335C12.9606 13.3335 13.3334 13.7062 13.3334 14.1669V14.3901L13.527 14.2783C13.9234 14.048 14.4336 14.1847 14.6655 14.5835C14.8959 14.9822 14.7591 15.4917 14.3604 15.722L14.1672 15.8335L14.3604 15.945ZM21.027 15.945C21.4258 16.1753 21.5625 16.6847 21.3322 17.0835C21.1776 17.3504 20.8976 17.5001 20.6095 17.5001C20.4679 17.5001 20.3247 17.4644 20.1937 17.3887L20 17.2769V17.5001C20 17.9608 19.6273 18.3335 19.1666 18.3335C18.706 18.3335 18.3333 17.9608 18.3333 17.5001V17.2769L18.1396 17.3887C18.0086 17.4644 17.8654 17.5001 17.7238 17.5001C17.4356 17.5001 17.1557 17.3504 17.0011 17.0835C16.7708 16.6847 16.9075 16.1753 17.3063 15.945L17.4995 15.8335L17.3063 15.722C16.9075 15.4917 16.7708 14.9822 17.0011 14.5835C17.2306 14.1847 17.7409 14.048 18.1396 14.2783L18.3333 14.3901V14.1669C18.3333 13.7062 18.706 13.3335 19.1666 13.3335C19.6273 13.3335 20 13.7062 20 14.1669V14.3901L20.1937 14.2783C20.5908 14.048 21.1011 14.1847 21.3322 14.5835C21.5625 14.9822 21.4258 15.4917 21.027 15.722L20.8338 15.8335L21.027 15.945Z" fill="#CBCDD6"/>
<path d="M38.3334 20.0002V19.1669C38.3334 15.9507 35.7162 13.3335 32.5 13.3335C29.2838 13.3335 26.6666 15.9507 26.6666 19.1669V20.0002C25.7479 20.0002 25 20.7481 25 21.6669V30.0002C25 30.919 25.7479 31.6669 26.6666 31.6669H38.3333C39.252 31.6669 39.9999 30.919 39.9999 30.0002V21.6669C40 20.7481 39.2521 20.0002 38.3334 20.0002ZM33.3334 26.4106V27.5002C33.3334 27.9608 32.9606 28.3336 32.5 28.3336C32.0394 28.3336 31.6666 27.9608 31.6666 27.5002V26.4106C31.1777 26.1197 30.8333 25.6089 30.8333 25.0002C30.8333 24.0815 31.5812 23.3336 32.4999 23.3336C33.4187 23.3336 34.1666 24.0815 34.1666 25.0002C34.1666 25.609 33.8222 26.1197 33.3334 26.4106ZM35 20.0002H30V19.1669C30 17.7883 31.1214 16.6669 32.5 16.6669C33.8786 16.6669 35 17.7883 35 19.1669V20.0002Z" fill="#CBCDD6"/>
</svg>
