<svg width="40" height="40" viewBox="0 0 40 40" fill="none" xmlns="http://www.w3.org/2000/svg">
<path d="M22.8234 21.5985C22.3689 21.5985 22.0004 21.23 22.0004 20.7755V17.0142H18.0004V20.7755C18.0004 21.23 17.6319 21.5985 17.1773 21.5985H13.416V25.5903H17.1773C17.6319 25.5903 18.0004 25.9588 18.0004 26.4133V30.1747H21.9921V26.4133C21.9921 25.9588 22.3607 25.5903 22.8152 25.5903H26.5847V21.5985H22.8234Z" fill="#CBCDD6"/>
<path d="M34.321 9.20361H5.67901C3.06173 9.20361 0 10.6933 0 14.8826V32.7674C0 36.9567 3.06173 38.4464 5.67901 38.4464H34.321C36.9383 38.4464 40 36.9567 40 32.7674V14.8826C40 10.6933 36.9465 9.20361 34.321 9.20361ZM28.2305 26.0102C28.2305 26.6875 27.6814 27.2365 27.0041 27.2365H23.6461V30.5946C23.6461 31.2718 23.097 31.8209 22.4198 31.8209H17.5802C16.903 31.8209 16.3539 31.2718 16.3539 30.5946V27.2365H13.0041C12.3269 27.2411 11.7741 26.6957 11.7695 26.0184C11.7695 26.0156 11.7695 26.0129 11.7695 26.0102V21.1789C11.7695 20.5017 12.3186 19.9526 12.9959 19.9526H16.3539V16.5946C16.3539 15.9173 16.903 15.3682 17.5802 15.3682H22.4115C23.0888 15.3682 23.6379 15.9173 23.6379 16.5946V19.9526H26.9959C27.6731 19.9481 28.2259 20.4934 28.2305 21.1707C28.2305 21.1735 28.2305 21.1761 28.2305 21.1789V26.0102Z" fill="#CBCDD6"/>
<path d="M25.2921 1.55761C25.2018 1.55247 25.1113 1.55247 25.021 1.55761H14.9798C13.6591 1.48282 12.5279 2.49269 12.4531 3.81327C12.4479 3.9036 12.4479 3.99403 12.4531 4.08436V7.78806H14.0992L14.1074 4.08436C14.1074 3.84568 14.1074 3.2037 14.9881 3.2037H25.021C25.9016 3.2037 25.9016 3.83745 25.9016 4.08436V7.78806H27.5477V4.08436C27.6226 2.76368 26.6126 1.63251 25.2921 1.55761Z" fill="#CBCDD6"/>
</svg>
